<?xml version="1.0" encoding="UTF-8"?>
<svg id="Layer_1" data-name="Layer 1" xmlns="http://www.w3.org/2000/svg" viewBox="0 0 1920 1080">
  <defs>
    <style>
      .cls-1 {
        letter-spacing: -.04em;
      }

      .cls-2 {
        font-size: 203.64px;
      }

      .cls-2, .cls-3, .cls-4 {
        fill: #262262;
      }

      .cls-5 {
        font-family: Avenir-Regular, Avenir;
      }

      .cls-6 {
        fill: #fff;
      }

      .cls-7 {
        letter-spacing: -.01em;
      }

      .cls-8 {
        letter-spacing: 0em;
      }

      .cls-9 {
        letter-spacing: -.03em;
      }

      .cls-4 {
        font-family: Montserrat-SemiBold, Montserrat;
        font-size: 52.07px;
        font-weight: 600;
      }

      .cls-10 {
        fill: none;
        stroke: #262262;
        stroke-miterlimit: 10;
        stroke-width: 20px;
      }

      .cls-11 {
        font-family: Avenir-Heavy, Avenir;
        font-weight: 800;
      }

      .cls-12 {
        letter-spacing: -.01em;
      }
    </style>
  </defs>
  <g>
    <text class="cls-2" transform="translate(608.46 622.09)"><tspan class="cls-11" x="0" y="0">Aqua</tspan><tspan class="cls-5" x="501.56" y="0">Sense</tspan></text>
    <text class="cls-4" transform="translate(636.09 680.7)"><tspan class="cls-1" x="0" y="0">W</tspan><tspan class="cls-9" x="57.64" y="0">A</tspan><tspan x="94.81" y="0" xml:space="preserve">TER   Q</tspan><tspan class="cls-12" x="286.05" y="0">U</tspan><tspan x="326.34" y="0">ALI</tspan><tspan class="cls-8" x="413.14" y="0">T</tspan><tspan x="443.96" y="0">Y MONI</tspan><tspan class="cls-8" x="645.08" y="0">T</tspan><tspan x="675.91" y="0">OR </tspan><tspan class="cls-7" x="772.17" y="0">SY</tspan><tspan class="cls-8" x="837.78" y="0">S</tspan><tspan x="870.01" y="0">TEM</tspan></text>
  </g>
  <g>
    <path class="cls-3" d="M1202.45,513.63c-8.61,0-15.62-7.01-15.62-15.62s7.01-15.62,15.62-15.62,15.62,7.01,15.62,15.62-7.01,15.62-15.62,15.62Z"/>
    <path class="cls-6" d="M1202.45,484.39c7.52,0,13.62,6.1,13.62,13.62s-6.1,13.62-13.62,13.62-13.62-6.1-13.62-13.62,6.1-13.62,13.62-13.62M1202.45,480.39c-9.71,0-17.62,7.9-17.62,17.62s7.9,17.62,17.62,17.62,17.62-7.9,17.62-17.62-7.9-17.62-17.62-17.62h0Z"/>
  </g>
  <circle class="cls-3" cx="1167.77" cy="550.52" r="15.48"/>
  <g>
    <path class="cls-10" d="M558.77,576.02c0,90.75-73.57,164.31-164.31,164.31s-164.31-73.57-164.31-164.31,73.57-164.31,164.31-164.31c84.56,0,164.31,73.57,164.31,164.31Z"/>
    <g>
      <g>
        <path class="cls-3" d="M537.23,578.58c-7.44,33.39-14.59,43.12-19.59,46.06-21.08,12.4-38.05-75.82-61.9-58.94-3.24,2.29-5.85,5.98-7.69,9.12h0c-6.75,26.92-13.11,35.28-17.68,37.97-21.08,12.4-38.04-75.82-61.9-58.94-3.11,2.2-5.64,5.7-7.47,8.74-6.72,26.7-13.06,35.01-17.61,37.69-21.08,12.4-38.04-75.82-61.9-58.94-4.15,2.94-7.28,8.18-9.07,11.59,5-16.91,9.94-24.54,14.21-27.81,22.11-16.92,39.82,73.1,62.08,56.46,5.08-3.79,9.2-12.24,12.48-21.8.11-.32.22-.63.32-.94.51-1.52,1-3.07,1.47-4.62-.11.48-.22.96-.32,1.43,3.87-10.24,7.61-15.47,10.95-18.02,22.11-16.92,39.82,73.1,62.08,56.46,6.04-4.52,10.73-15.63,14.28-27.37-.13.6-.27,1.19-.4,1.77,3.99-10.9,7.88-16.38,11.32-19.01,22.12-16.92,39.82,73.1,62.08,56.46,6.04-4.52,10.73-15.63,14.28-27.37Z"/>
        <path class="cls-3" d="M527.23,604.83c-7.44,33.39-14.59,43.12-19.59,46.06-21.08,12.4-38.05-75.82-61.9-58.94-3.24,2.29-5.85,5.98-7.69,9.12h0c-6.75,26.92-13.11,35.28-17.68,37.97-21.08,12.4-38.04-75.82-61.9-58.94-3.11,2.2-5.64,5.7-7.47,8.74-6.72,26.7-13.06,35.01-17.61,37.69-21.08,12.4-38.04-75.82-61.9-58.94-4.15,2.94-7.28,8.18-9.07,11.59,5-16.91,9.94-24.54,14.21-27.81,22.11-16.92,39.82,73.1,62.08,56.46,5.08-3.79,9.2-12.24,12.48-21.8.11-.32.22-.63.32-.94.51-1.52,1-3.07,1.47-4.62-.11.48-.22.96-.32,1.43,3.87-10.24,7.61-15.47,10.95-18.02,22.11-16.92,39.82,73.1,62.08,56.46,6.04-4.52,10.73-15.63,14.28-27.37-.13.6-.27,1.19-.4,1.77,3.99-10.9,7.88-16.38,11.32-19.01,22.12-16.92,39.82,73.1,62.08,56.46,6.04-4.52,10.73-15.63,14.28-27.37Z"/>
      </g>
      <g>
        <path class="cls-3" d="M558.77,530.47c-7.44,33.39-14.59,43.12-19.59,46.06-21.08,12.4-38.05-75.82-61.9-58.94-3.24,2.29-5.85,5.98-7.69,9.12h0c-6.75,26.92-13.11,35.28-17.68,37.97-21.08,12.4-38.04-75.82-61.9-58.94-3.11,2.2-5.64,5.7-7.47,8.74-6.72,26.7-13.06,35.01-17.61,37.69-21.08,12.4-38.04-75.82-61.9-58.94-4.15,2.94-7.28,8.18-9.07,11.59,5-16.91,9.94-24.54,14.21-27.81,22.11-16.92,39.82,73.1,62.08,56.46,5.08-3.79,9.2-12.24,12.48-21.8.11-.32.22-.63.32-.94.51-1.52,1-3.07,1.47-4.62-.11.48-.22.96-.32,1.43,3.87-10.24,7.61-15.47,10.95-18.02,22.11-16.92,39.82,73.1,62.08,56.46,6.04-4.52,10.73-15.63,14.28-27.37-.13.6-.27,1.19-.4,1.77,3.99-10.9,7.88-16.38,11.32-19.01,22.12-16.92,39.82,73.1,62.08,56.46,6.04-4.52,10.73-15.63,14.28-27.37Z"/>
        <path class="cls-3" d="M548.77,556.71c-7.44,33.39-14.59,43.12-19.59,46.06-21.08,12.4-38.05-75.82-61.9-58.94-3.24,2.29-5.85,5.98-7.69,9.12h0c-6.75,26.92-13.11,35.28-17.68,37.97-21.08,12.4-38.04-75.82-61.9-58.94-3.11,2.2-5.64,5.7-7.47,8.74-6.72,26.7-13.06,35.01-17.61,37.69-21.08,12.4-38.04-75.82-61.9-58.94-4.15,2.94-7.28,8.18-9.07,11.59,5-16.91,9.94-24.54,14.21-27.81,22.11-16.92,39.82,73.1,62.08,56.46,5.08-3.79,9.2-12.24,12.48-21.8.11-.32.22-.63.32-.94.51-1.52,1-3.07,1.47-4.62-.11.48-.22.96-.32,1.43,3.87-10.24,7.61-15.47,10.95-18.02,22.11-16.92,39.82,73.1,62.08,56.46,6.04-4.52,10.73-15.63,14.28-27.37-.13.6-.27,1.19-.4,1.77,3.99-10.9,7.88-16.38,11.32-19.01,22.12-16.92,39.82,73.1,62.08,56.46,6.04-4.52,10.73-15.63,14.28-27.37Z"/>
      </g>
      <g>
        <path class="cls-3" d="M516.99,625.78c-7.44,33.39-14.59,43.12-19.59,46.06-21.08,12.4-38.05-75.82-61.9-58.94-3.24,2.29-5.85,5.98-7.69,9.12h0c-6.75,26.92-13.11,35.28-17.68,37.97-21.08,12.4-38.04-75.82-61.9-58.94-3.11,2.2-5.64,5.7-7.47,8.74-6.72,26.7-13.06,35.01-17.61,37.69-21.08,12.4-38.04-75.82-61.9-58.94-4.15,2.94-7.28,8.18-9.07,11.59,5-16.91,9.94-24.54,14.21-27.81,22.11-16.92,39.82,73.1,62.08,56.46,5.08-3.79,9.2-12.24,12.48-21.8.11-.32.22-.63.32-.94.51-1.52,1-3.07,1.47-4.62-.11.48-.22.96-.32,1.43,3.87-10.24,7.61-15.47,10.95-18.02,22.11-16.92,39.82,73.1,62.08,56.46,6.04-4.52,10.73-15.63,14.28-27.37-.13.6-.27,1.19-.4,1.77,3.99-10.9,7.88-16.38,11.32-19.01,22.12-16.92,39.82,73.1,62.08,56.46,6.04-4.52,10.73-15.63,14.28-27.37Z"/>
        <path class="cls-3" d="M506.98,652.02c-7.44,33.39-14.59,43.12-19.59,46.06-21.08,12.4-38.05-75.82-61.9-58.94-3.24,2.29-5.85,5.98-7.69,9.12h0c-6.75,26.92-13.11,35.28-17.68,37.97-21.08,12.4-38.04-75.82-61.9-58.94-3.11,2.2-5.64,5.7-7.47,8.74-6.72,26.7-13.06,35.01-17.61,37.69-21.08,12.4-38.04-75.82-61.9-58.94-4.15,2.94-7.28,8.18-9.07,11.59,5-16.91,9.94-24.54,14.21-27.81,22.11-16.92,39.82,73.1,62.08,56.46,5.08-3.79,9.2-12.24,12.48-21.8.11-.32.22-.63.32-.94.51-1.52,1-3.07,1.47-4.62-.11.48-.22.96-.32,1.43,3.87-10.24,7.61-15.47,10.95-18.02,22.11-16.92,39.82,73.1,62.08,56.46,6.04-4.52,10.73-15.63,14.28-27.37-.13.6-.27,1.19-.4,1.77,3.99-10.9,7.88-16.38,11.32-19.01,22.12-16.92,39.82,73.1,62.08,56.46,6.04-4.52,10.73-15.63,14.28-27.37Z"/>
      </g>
    </g>
  </g>
</svg>