<?xml version="1.0" encoding="UTF-8"?>
<svg id="Layer_1" data-name="Layer 1" xmlns="http://www.w3.org/2000/svg" viewBox="200 392 368 368">
  <defs>
    <style>
      .cls-3 { fill: #262262; }
      .cls-10 { fill: none; stroke: #262262; stroke-miterlimit: 10; stroke-width: 20px; }
    </style>
  </defs>
  <path class="cls-10" d="M558.77,576.02c0,90.75-73.57,164.31-164.31,164.31s-164.31-73.57-164.31-164.31,73.57-164.31,164.31-164.31c84.56,0,164.31,73.57,164.31,164.31Z"/>
  <path class="cls-3" d="M537.23,578.58c-7.44,33.39-14.59,43.12-19.59,46.06-21.08,12.4-38.05-75.82-61.9-58.94-3.24,2.29-5.85,5.98-7.69,9.12h0c-6.75,26.92-13.11,35.28-17.68,37.97-21.08,12.4-38.04-75.82-61.9-58.94-3.11,2.2-5.64,5.7-7.47,8.74-6.72,26.7-13.06,35.01-17.61,37.69-21.08,12.4-38.04-75.82-61.9-58.94-4.15,2.94-7.28,8.18-9.07,11.59,5-16.91,9.94-24.54,14.21-27.81,22.11-16.92,39.82,73.1,62.08,56.46,5.08-3.79,9.2-12.24,12.48-21.8.11-.32.22-.63.32-.94.51-1.52,1-3.07,1.47-4.62-.11.48-.22.96-.32,1.43,3.87-10.24,7.61-15.47,10.95-18.02,22.11-16.92,39.82,73.1,62.08,56.46,6.04-4.52,10.73-15.63,14.28-27.37-.13.6-.27,1.19-.4,1.77,3.99-10.9,7.88-16.38,11.32-19.01,22.12-16.92,39.82,73.1,62.08,56.46,6.04-4.52,10.73-15.63,14.28-27.37Z"/>
  <path class="cls-3" d="M527.23,604.83c-7.44,33.39-14.59,43.12-19.59,46.06-21.08,12.4-38.05-75.82-61.9-58.94-3.24,2.29-5.85,5.98-7.69,9.12h0c-6.75,26.92-13.11,35.28-17.68,37.97-21.08,12.4-38.04-75.82-61.9-58.94-3.11,2.2-5.64,5.7-7.47,8.74-6.72,26.7-13.06,35.01-17.61,37.69-21.08,12.4-38.04-75.82-61.9-58.94-4.15,2.94-7.28,8.18-9.07,11.59,5-16.91,9.94-24.54,14.21-27.81,22.11-16.92,39.82,73.1,62.08,56.46,5.08-3.79,9.2-12.24,12.48-21.8.11-.32.22-.63.32-.94.51-1.52,1-3.07,1.47-4.62-.11.48-.22.96-.32,1.43,3.87-10.24,7.61-15.47,10.95-18.02,22.11-16.92,39.82,73.1,62.08,56.46,6.04-4.52,10.73-15.63,14.28-27.37-.13.6-.27,1.19-.4,1.77,3.99-10.9,7.88-16.38,11.32-19.01,22.12-16.92,39.82,73.1,62.08,56.46,6.04-4.52,10.73-15.63,14.28-27.37Z"/>
  <path class="cls-3" d="M558.77,530.47c-7.44,33.39-14.59,43.12-19.59,46.06-21.08,12.4-38.05-75.82-61.9-58.94-3.24,2.29-5.85,5.98-7.69,9.12h0c-6.75,26.92-13.11,35.28-17.68,37.97-21.08,12.4-38.04-75.82-61.9-58.94-3.11,2.2-5.64,5.7-7.47,8.74-6.72,26.7-13.06,35.01-17.61,37.69-21.08,12.4-38.04-75.82-61.9-58.94-4.15,2.94-7.28,8.18-9.07,11.59,5-16.91,9.94-24.54,14.21-27.81,22.11-16.92,39.82,73.1,62.08,56.46,5.08-3.79,9.2-12.24,12.48-21.8.11-.32.22-.63.32-.94.51-1.52,1-3.07,1.47-4.62-.11.48-.22.96-.32,1.43,3.87-10.24,7.61-15.47,10.95-18.02,22.11-16.92,39.82,73.1,62.08,56.46,6.04-4.52,10.73-15.63,14.28-27.37-.13.6-.27,1.19-.4,1.77,3.99-10.9,7.88-16.38,11.32-19.01,22.12-16.92,39.82,73.1,62.08,56.46,6.04-4.52,10.73-15.63,14.28-27.37Z"/>
  <path class="cls-3" d="M548.77,556.71c-7.44,33.39-14.59,43.12-19.59,46.06-21.08,12.4-38.05-75.82-61.9-58.94-3.24,2.29-5.85,5.98-7.69,9.12h0c-6.75,26.92-13.11,35.28-17.68,37.97-21.08,12.4-38.04-75.82-61.9-58.94-3.11,2.2-5.64,5.7-7.47,8.74-6.72,26.7-13.06,35.01-17.61,37.69-21.08,12.4-38.04-75.82-61.9-58.94-4.15,2.94-7.28,8.18-9.07,11.59,5-16.91,9.94-24.54,14.21-27.81,22.11-16.92,39.82,73.1,62.08,56.46,5.08-3.79,9.2-12.24,12.48-21.8.11-.32.22-.63.32-.94.51-1.52,1-3.07,1.47-4.62-.11.48-.22.96-.32,1.43,3.87-10.24,7.61-15.47,10.95-18.02,22.11-16.92,39.82,73.1,62.08,56.46,6.04-4.52,10.73-15.63,14.28-27.37-.13.6-.27,1.19-.4,1.77,3.99-10.9,7.88-16.38,11.32-19.01,22.12-16.92,39.82,73.1,62.08,56.46,6.04-4.52,10.73-15.63,14.28-27.37Z"/>
  <path class="cls-3" d="M516.99,625.78c-7.44,33.39-14.59,43.12-19.59,46.06-21.08,12.4-38.05-75.82-61.9-58.94-3.24,2.29-5.85,5.98-7.69,9.12h0c-6.75,26.92-13.11,35.28-17.68,37.97-21.08,12.4-38.04-75.82-61.9-58.94-3.11,2.2-5.64,5.7-7.47,8.74-6.72,26.7-13.06,35.01-17.61,37.69-21.08,12.4-38.04-75.82-61.9-58.94-4.15,2.94-7.28,8.18-9.07,11.59,5-16.91,9.94-24.54,14.21-27.81,22.11-16.92,39.82,73.1,62.08,56.46,5.08-3.79,9.2-12.24,12.48-21.8.11-.32.22-.63.32-.94.51-1.52,1-3.07,1.47-4.62-.11.48-.22.96-.32,1.43,3.87-10.24,7.61-15.47,10.95-18.02,22.11-16.92,39.82,73.1,62.08,56.46,6.04-4.52,10.73-15.63,14.28-27.37-.13.6-.27,1.19-.4,1.77,3.99-10.9,7.88-16.38,11.32-19.01,22.12-16.92,39.82,73.1,62.08,56.46,6.04-4.52,10.73-15.63,14.28-27.37Z"/>
  <path class="cls-3" d="M506.98,652.02c-7.44,33.39-14.59,43.12-19.59,46.06-21.08,12.4-38.05-75.82-61.9-58.94-3.24,2.29-5.85,5.98-7.69,9.12h0c-6.75,26.92-13.11,35.28-17.68,37.97-21.08,12.4-38.04-75.82-61.9-58.94-3.11,2.2-5.64,5.7-7.47,8.74-6.72,26.7-13.06,35.01-17.61,37.69-21.08,12.4-38.04-75.82-61.9-58.94-4.15,2.94-7.28,8.18-9.07,11.59,5-16.91,9.94-24.54,14.21-27.81,22.11-16.92,39.82,73.1,62.08,56.46,5.08-3.79,9.2-12.24,12.48-21.8.11-.32.22-.63.32-.94.51-1.52,1-3.07,1.47-4.62-.11.48-.22.96-.32,1.43,3.87-10.24,7.61-15.47,10.95-18.02,22.11-16.92,39.82,73.1,62.08,56.46,6.04-4.52,10.73-15.63,14.28-27.37-.13.6-.27,1.19-.4,1.77,3.99-10.9,7.88-16.38,11.32-19.01,22.12-16.92,39.82,73.1,62.08,56.46,6.04-4.52,10.73-15.63,14.28-27.37Z"/>
</svg>
